<?xml version="1.0" encoding="iso-8859-1"?>
<!-- Generator: Adobe Illustrator 17.1.0, SVG Export Plug-In . SVG Version: 6.00 Build 0)  -->
<!DOCTYPE svg PUBLIC "-//W3C//DTD SVG 1.1//EN" "http://www.w3.org/Graphics/SVG/1.1/DTD/svg11.dtd">
<svg xmlns="http://www.w3.org/2000/svg" xmlns:xlink="http://www.w3.org/1999/xlink" version="1.1" id="Capa_1" x="0px" y="0px" viewBox="0 0 207.344 207.344" style="enable-background:new 0 0 207.344 207.344;" xml:space="preserve" width="512px" height="512px">
<path d="M194.188,148.613c-1.486-8.621-8.123-15.777-16.87-17.682l-20.267-4.415l-0.085-17.35l0.745,0.052  c0.174,0.012,0.347,0.018,0.52,0.018c1.891,0,3.719-0.715,5.111-2.012c1.52-1.415,2.385-3.397,2.389-5.474l0.019-9.599  c0.224-4.195-1.162-8.243-3.92-11.428c-2.747-3.172-6.536-5.118-10.701-5.506l-64.55-9.953c-0.201-0.031-0.403-0.054-0.605-0.068  c-8.924-0.646-16.635,6.16-17.263,14.953c-0.012,0.164-0.019,0.328-0.02,0.492l-0.089,15.352c-0.022,3.957,3.033,7.251,6.98,7.525  l2.665,0.185l-0.024,5.64l-23.956-5.219l-22.032-82.65c-0.875-3.283-3.849-5.568-7.247-5.568H7.5c-4.143,0-7.5,3.357-7.5,7.5  s3.357,7.5,7.5,7.5h11.725l21.727,81.504l0,0l6.923,26.308c-7.831,5.131-13.017,13.978-13.017,24.018  c0,15.825,12.875,28.699,28.7,28.699c12.074,0,22.423-7.498,26.654-18.08h72.72c2.025,10.293,11.115,18.083,21.993,18.083  c12.361,0,22.418-10.057,22.418-22.418C207.344,159.961,201.939,152.146,194.188,148.613z M63.659,177.531  c-8.158,0-14.795-6.637-14.795-14.795s6.637-14.795,14.795-14.795s14.795,6.637,14.795,14.795S71.817,177.531,63.659,177.531z   M93.209,112.608l0.034-7.864l48.718,3.381l0.074,15.12L93.209,112.608z M184.926,180.796c-6.493,0-11.776-5.283-11.776-11.776  c0-6.494,5.283-11.777,11.776-11.777c6.494,0,11.777,5.283,11.777,11.777C196.703,175.513,191.42,180.796,184.926,180.796z" fill="#0d572c"/>
<g>
</g>
<g>
</g>
<g>
</g>
<g>
</g>
<g>
</g>
<g>
</g>
<g>
</g>
<g>
</g>
<g>
</g>
<g>
</g>
<g>
</g>
<g>
</g>
<g>
</g>
<g>
</g>
<g>
</g>
</svg>
