<?xml version="1.0" encoding="utf-8"?>
<!-- Generator: Adobe Illustrator 17.0.0, SVG Export Plug-In . SVG Version: 6.00 Build 0)  -->
<!DOCTYPE svg PUBLIC "-//W3C//DTD SVG 1.1//EN" "http://www.w3.org/Graphics/SVG/1.1/DTD/svg11.dtd">
<svg version="1.1" id="Layer_1" xmlns="http://www.w3.org/2000/svg" xmlns:xlink="http://www.w3.org/1999/xlink" x="0px" y="0px"
	 width="751.41px" height="751.67px" viewBox="0 0 751.41 751.67" enable-background="new 0 0 751.41 751.67" xml:space="preserve">
<g>
	<path fill="#009054" d="M388.566,751.67C161.067,749.313,14.207,582.386,1.204,406.559
		c-8.506-115.013,28.079-214.88,109.398-296.83C177.323,42.49,259.075,5.869,353.797,0.656
		c103.177-5.678,194.55,25.465,271.771,94.316c77.1,68.743,119.407,155.566,125.168,258.772
		c5.994,107.393-28.013,201.481-101.902,279.78C574.953,711.815,482.68,749.495,388.566,751.67z M553.962,157.674
		c-89.457,89.457-179.286,179.286-269.598,269.598c-36.594-36.615-72.731-72.772-108.185-108.247
		c-27.896,27.883-55.857,55.832-83.927,83.889c0.015,0.018,0.42,0.542,0.884,1.006c62.67,62.685,125.362,125.347,187.96,188.103
		c2.9,2.907,4.464,2.491,7.162-0.21C404.006,475.939,519.828,360.139,635.632,244.32c0.995-0.995,1.855-2.123,2.322-2.663
		C609.783,213.49,581.973,185.683,553.962,157.674z"/>
	<path fill="#FDFEFE" d="M553.962,157.674c28.011,28.008,55.821,55.815,83.992,83.983c-0.467,0.539-1.327,1.668-2.322,2.663
		c-115.803,115.819-231.626,231.62-347.375,347.494c-2.698,2.701-4.262,3.117-7.162,0.21
		c-62.598-62.756-125.29-125.418-187.96-188.103c-0.464-0.464-0.869-0.988-0.884-1.006c28.07-28.057,56.031-56.006,83.927-83.889
		c35.455,35.475,71.591,71.632,108.185,108.247C374.675,336.96,464.505,247.131,553.962,157.674z"/>
</g>
</svg>
